<?xml version="1.0" standalone="no"?>
<!DOCTYPE svg PUBLIC "-//W3C//DTD SVG 20010904//EN"
 "http://www.w3.org/TR/2001/REC-SVG-20010904/DTD/svg10.dtd">
<svg version="1.0" xmlns="http://www.w3.org/2000/svg"
 width="1222.000000pt" height="1280.000000pt" viewBox="0 0 1222.000000 1280.000000"
 preserveAspectRatio="xMidYMid meet">
<g transform="translate(0.000000,1280.000000) scale(0.100000,-0.100000)"
fill="#000000" stroke="none">
<path d="M7340 12790 c-141 -33 -209 -80 -229 -157 -5 -21 -15 -110 -21 -198
-22 -317 -99 -927 -151 -1210 -81 -439 -252 -900 -435 -1175 -127 -191 -232
-297 -552 -559 -215 -176 -358 -310 -448 -421 -101 -126 -160 -234 -284 -528
-67 -158 -125 -296 -130 -307 -5 -11 -47 -108 -93 -215 -228 -528 -452 -952
-712 -1346 -234 -354 -424 -555 -657 -696 -125 -77 -244 -104 -419 -95 -59 2
-112 1 -118 -2 -17 -11 -16 -5210 1 -5227 14 -13 109 -32 668 -134 528 -96
990 -182 1455 -270 524 -99 557 -104 820 -125 116 -9 257 -20 315 -25 292 -26
775 -50 1405 -70 182 -6 400 -15 485 -20 204 -13 533 -13 745 0 719 45 911 68
1130 137 252 80 509 255 780 534 136 140 198 216 248 310 58 106 61 125 61
454 1 339 4 354 78 466 24 37 130 152 247 269 113 113 225 230 248 260 144
190 181 331 133 514 -12 43 -61 180 -111 304 -104 260 -129 346 -129 446 0
117 36 178 246 422 212 245 253 305 288 411 17 50 17 54 -5 125 -28 95 -58
153 -199 389 -186 309 -216 379 -208 494 5 84 43 156 172 328 148 196 204 285
232 367 29 87 29 100 4 198 -83 309 -269 626 -525 891 -244 253 -399 304
-1050 346 -548 36 -1577 46 -2308 24 l-377 -12 -24 22 c-34 32 -47 83 -53 211
-6 137 11 257 62 435 71 248 130 382 465 1065 126 256 245 510 265 565 45 121
126 439 152 590 15 91 18 165 18 430 -1 359 -6 406 -77 665 -91 335 -195 519
-407 722 -196 188 -430 313 -671 358 -36 7 -92 21 -124 31 -62 20 -144 23
-206 9z"/>
<path d="M442 6129 c-195 -33 -336 -150 -403 -331 -10 -29 -24 -54 -29 -56 -7
-3 -10 -864 -10 -2535 0 -2072 2 -2533 13 -2546 7 -9 21 -42 30 -73 42 -138
206 -279 358 -308 31 -6 376 -10 881 -10 725 0 838 2 892 16 191 49 331 200
367 396 12 60 14 509 14 2533 0 2321 -1 2464 -18 2529 -47 184 -170 316 -346
370 -64 20 -92 20 -881 22 -448 1 -839 -2 -868 -7z"/>
</g>
</svg>
